<svg id="svg" xmlns="http://www.w3.org/2000/svg" xmlns:xlink="http://www.w3.org/1999/xlink" width="400" height="400" viewBox="0, 0, 400,400" version="1.1"><g id="svgg"><path id="path0" d="M178.000 0.220 C 177.670 0.290,175.240 0.737,172.600 1.212 C 110.913 12.322,62.195 57.637,47.257 117.800 C 42.530 136.838,42.688 134.193,42.651 194.800 L 42.619 247.800 43.505 249.617 C 46.578 255.918,56.806 258.153,62.046 253.668 C 67.795 248.747,67.487 251.974,67.797 193.400 C 68.010 153.150,68.174 142.620,68.637 139.400 C 74.527 98.409,98.489 62.417,133.000 42.726 C 146.363 35.102,163.987 28.529,175.614 26.833 C 229.393 18.991,271.627 35.572,305.436 77.800 C 318.707 94.376,329.310 122.562,332.069 148.600 C 332.656 154.137,332.756 169.937,332.259 178.400 C 331.754 186.992,332.968 189.678,338.671 192.594 C 343.771 195.202,348.851 194.354,353.523 190.117 L 355.637 188.200 356.221 183.800 C 360.467 151.767,354.041 111.714,340.531 86.000 C 315.734 38.806,274.660 9.030,222.739 0.610 C 219.372 0.064,180.336 -0.276,178.000 0.220 M190.400 47.641 C 172.045 49.242,143.737 59.846,139.776 66.605 C 134.681 75.299,140.237 85.159,150.440 85.530 L 154.679 85.684 157.983 83.810 C 211.388 53.506,276.286 88.070,283.172 150.484 C 284.537 162.859,283.311 259.710,281.633 272.076 C 277.671 301.272,269.001 328.305,255.711 352.898 C 254.041 355.989,252.664 359.054,252.567 359.898 C 252.471 360.724,252.300 361.852,252.186 362.405 C 252.071 362.958,252.344 364.474,252.791 365.773 C 255.823 374.585,261.712 377.216,270.201 373.551 L 273.331 372.200 276.309 367.000 C 294.291 335.598,304.505 302.303,308.028 263.600 C 309.377 248.778,309.388 156.496,308.042 146.000 C 303.854 113.349,290.040 88.867,264.800 69.361 C 244.535 53.700,216.102 45.400,190.400 47.641 M114.138 95.195 C 108.546 96.374,106.563 98.608,101.130 109.840 C 96.696 119.008,94.348 125.980,92.455 135.600 C 90.598 145.036,90.465 147.535,90.206 178.000 C 90.091 191.530,89.891 213.490,89.763 226.800 L 89.528 251.000 88.341 254.592 C 86.479 260.226,82.517 266.496,78.998 269.380 C 78.000 270.198,76.907 271.528,76.570 272.334 C 76.233 273.140,75.532 274.250,75.012 274.800 C 72.839 277.098,72.760 282.591,74.840 286.754 C 77.020 291.116,80.602 293.059,85.851 292.724 C 87.253 292.635,88.403 292.661,88.406 292.781 C 88.498 296.060,99.964 285.776,105.500 277.449 C 112.687 266.639,114.271 260.489,114.576 242.200 C 114.705 234.500,114.916 226.121,115.045 223.580 C 115.173 221.039,115.423 203.309,115.600 184.180 C 115.950 146.298,116.002 145.401,118.387 135.922 C 119.918 129.839,122.569 123.081,125.888 116.800 L 128.530 111.800 128.522 108.200 C 128.503 99.248,122.151 93.504,114.138 95.195 M194.239 96.056 C 164.589 99.860,145.563 117.471,139.849 146.400 L 138.862 151.400 138.628 190.000 C 138.300 244.197,138.111 252.812,137.137 258.000 C 133.178 279.092,122.150 297.236,105.400 310.216 C 102.889 312.162,101.206 313.778,100.878 314.558 C 100.591 315.241,99.871 316.307,99.278 316.926 C 98.239 318.012,98.200 318.213,98.200 322.526 C 98.200 331.626,101.682 334.750,111.344 334.321 L 115.455 334.138 120.069 330.689 C 143.900 312.879,158.350 288.584,162.784 258.870 C 163.470 254.268,163.562 250.271,163.773 215.600 C 164.174 149.515,164.129 150.554,166.923 143.612 C 177.810 116.560,214.667 113.368,229.580 138.184 C 234.385 146.178,234.759 148.496,235.428 174.400 C 235.750 186.885,235.873 187.406,239.266 190.665 C 245.447 196.600,255.034 194.840,258.991 187.044 L 260.504 184.063 260.486 167.932 C 260.453 137.355,253.008 119.272,235.400 107.003 C 224.266 99.245,206.404 94.495,194.239 96.056 M195.217 144.636 C 192.875 145.490,191.103 146.877,189.449 149.149 L 188.102 151.000 187.444 179.000 C 187.082 194.400,186.779 213.840,186.770 222.200 C 186.750 241.889,186.224 257.586,185.424 262.400 C 180.325 293.076,168.006 317.226,146.483 338.739 L 139.541 345.678 138.932 348.539 C 136.780 358.660,140.698 363.685,150.884 363.868 L 155.967 363.958 161.495 358.841 C 190.732 331.777,207.065 299.179,211.420 259.200 C 211.960 254.241,212.055 246.173,212.071 203.533 L 212.089 153.667 211.104 151.515 C 208.360 145.521,201.241 142.438,195.217 144.636 M242.935 218.350 C 237.933 220.692,235.602 224.767,235.594 231.178 C 235.539 281.300,223.139 320.749,196.878 354.344 L 193.892 358.163 194.136 361.582 C 194.777 370.550,198.950 375.033,206.600 374.971 C 212.339 374.924,213.969 374.032,217.905 368.784 C 247.164 329.781,260.723 289.028,260.554 240.600 C 260.503 225.870,260.364 224.937,257.752 221.727 C 254.836 218.143,247.129 216.386,242.935 218.350 M339.745 221.969 C 337.743 222.878,335.006 225.288,333.805 227.198 C 332.973 228.523,332.909 229.206,332.649 239.600 C 331.577 282.454,322.937 323.052,307.708 356.800 C 305.707 361.234,306.199 366.512,308.994 370.600 C 313.912 377.793,326.267 376.150,330.051 367.801 C 343.425 338.286,351.550 309.297,354.963 278.920 C 356.411 266.028,356.598 262.264,356.599 246.000 L 356.600 229.400 355.425 227.279 C 352.480 221.964,345.192 219.496,339.745 221.969 " stroke="none" fill="#ffffff" fill-rule="evenodd"></path><path id="path1" d="M74.800 272.629 C 71.032 275.293,59.535 280.000,56.795 280.000 C 56.425 280.000,55.117 281.053,53.889 282.340 C 46.367 290.227,51.186 303.183,61.648 303.196 C 69.722 303.206,82.164 299.256,87.947 294.848 C 89.757 293.468,88.835 292.534,85.850 292.724 C 79.301 293.141,74.357 289.120,73.376 282.579 C 73.015 280.172,73.866 275.845,74.881 274.926 C 75.615 274.262,76.800 272.344,76.800 271.820 C 76.800 271.399,76.191 271.645,74.800 272.629 M99.000 314.669 C 96.567 316.180,86.552 321.013,83.455 322.171 C 76.098 324.923,73.111 330.348,74.965 337.587 C 78.137 349.968,90.206 349.937,110.200 337.496 C 115.909 333.944,115.843 334.146,111.225 334.331 C 101.654 334.716,98.200 331.585,98.200 322.526 C 98.200 318.248,98.246 318.003,99.251 316.926 C 100.236 315.871,101.200 314.338,101.200 313.826 C 101.200 313.434,100.649 313.645,99.000 314.669 M137.400 346.859 C 135.173 348.579,124.224 355.861,121.800 357.234 C 116.910 360.002,114.800 363.843,114.800 369.979 C 114.800 377.164,118.751 380.544,128.082 381.343 C 131.414 381.628,142.141 375.361,151.768 367.505 C 156.438 363.693,156.469 363.802,150.699 363.790 C 140.318 363.768,135.566 356.336,139.454 346.204 C 139.805 345.289,139.169 345.492,137.400 346.859 M187.800 364.855 C 184.500 368.515,179.509 373.932,176.709 376.893 C 168.969 385.077,168.577 391.294,175.407 397.537 L 177.664 399.600 182.990 399.600 L 188.316 399.600 192.603 396.151 C 199.762 390.392,215.144 374.211,214.280 373.347 C 214.188 373.255,213.233 373.580,212.157 374.068 C 203.249 378.112,195.077 372.468,194.104 361.600 L 193.800 358.200 187.800 364.855 M244.264 371.294 L 236.328 383.334 236.112 386.187 C 235.730 391.247,237.541 395.282,241.499 398.186 L 243.400 399.580 248.400 399.577 L 253.400 399.573 255.905 397.572 C 259.851 394.421,265.227 387.020,270.539 377.425 C 273.652 371.802,273.697 372.101,269.984 373.661 C 261.641 377.166,255.789 374.487,252.798 365.793 C 252.043 363.600,252.012 362.267,252.662 359.900 C 253.175 358.030,251.588 360.184,244.264 371.294 M304.706 362.902 C 303.885 364.496,301.223 369.490,298.791 374.000 C 291.862 386.851,291.749 392.524,298.316 397.877 L 300.430 399.600 305.737 399.600 C 314.187 399.600,314.904 398.934,322.360 384.142 C 325.617 377.681,328.827 370.800,328.585 370.800 C 328.492 370.800,327.493 371.499,326.364 372.354 C 317.457 379.095,305.590 372.770,306.467 361.749 C 306.654 359.388,306.447 359.524,304.706 362.902 " stroke="none" fill="#ffffff" fill-rule="evenodd"></path></g></svg>